<svg xmlns="http://www.w3.org/2000/svg" viewBox="0 0 96.11 59.86"><defs><style>.cls-1{fill:#fff;}</style></defs><title>Asset 1</title><g id="Layer_2" data-name="Layer 2"><g id="Layer_1-2" data-name="Layer 1"><path class="cls-1" d="M7,51.08a4.22,4.22,0,0,1-2.89-1.31v9.35c0,.05.08.08.19.08H5.86c.06,0,.06.46,0,.46H0s0-.46,0-.46H1.57c.14,0,.23,0,.23-.08V39.22c0-.06-.09-.12-.23-.12H0s0-.46,0-.46h4c.06,0,.06.06.06.09v.91a3.43,3.43,0,0,1,2.58-1.23c3.23,0,5.82,3.24,5.82,6.41S10.26,51.08,7,51.08ZM8.81,39.47a3.32,3.32,0,0,0-2.09-.6,2.82,2.82,0,0,0-2.58,1.49v8.46A3.16,3.16,0,0,0,7,50.65,2.36,2.36,0,0,0,8.81,50c.86-.74,1.31-2.43,1.31-5.2S9.67,40.22,8.81,39.47Z"/><path class="cls-1" d="M22.26,42.05c-.78,0-1.26-.46-1.26-1s.34-.72.34-1.21a.69.69,0,0,0-.73-.74c-.86,0-1.55.6-2.06,2.69v8.46c0,.09.06.12.17.12h1.56c.06,0,.06.46,0,.46H14.46c-.05,0-.05-.46,0-.46H16c.14,0,.2,0,.2-.12v-11c0-.09-.06-.12-.2-.12H14.46c-.05,0-.05-.46,0-.46h4c.08,0,.08,0,.08.09v1.89a2.67,2.67,0,0,1,2.84-2.23,2,2,0,0,1,2.09,2.08C23.48,41.5,22.92,42.05,22.26,42.05Z"/><path class="cls-1" d="M30.83,51.08a6.37,6.37,0,0,1,0-12.69,6.12,6.12,0,0,1,5.87,6.34A6.12,6.12,0,0,1,30.83,51.08Zm2.06-11.61a2.88,2.88,0,0,0-2.06-.63,2.88,2.88,0,0,0-2,.63c-.92.77-1.34,2.43-1.34,5.26,0,3.24.42,4.49,1.34,5.27a2.87,2.87,0,0,0,2,.62A2.88,2.88,0,0,0,32.89,50c.92-.78,1.36-2,1.36-5.27C34.25,41.9,33.81,40.24,32.89,39.47Z"/><path class="cls-1" d="M50.73,41c-.55,0-.86-.34-.86-.69s.22-.43.22-.68a.46.46,0,0,0-.5-.49c-.42,0-1-.06-1.53,1.26A4,4,0,0,1,48.9,43,4.6,4.6,0,0,1,41,46.16,2.08,2.08,0,0,0,40.13,48c0,1.52.64,2.06,2.28,2.06h3.23c3.67,0,5.57,1.2,5.57,4.41,0,3.51-3.76,5.4-6.74,5.4-3.76,0-6.35-1.8-6.35-4A4.12,4.12,0,0,1,41,52.14a2.87,2.87,0,0,1-2.45-2.8,4,4,0,0,1,2.17-3.52,4.45,4.45,0,0,1-1-2.83,4.6,4.6,0,0,1,4.62-4.6,4.47,4.47,0,0,1,3.57,1.71,2.65,2.65,0,0,1,2.33-1.71,1.33,1.33,0,0,1,1.37,1.43C51.57,40.53,51.18,41,50.73,41Zm-4,11.29H42.19a5.45,5.45,0,0,1-.7,0c-1,.58-1.53,1.55-1.53,3.29,0,3,1.64,3.83,4.51,3.83s5.4-1.4,5.4-3.74C49.87,53.8,48.87,52.28,46.75,52.28Zm-1-13a2.13,2.13,0,0,0-1.48-.4,2.16,2.16,0,0,0-1.47.4c-.61.55-.89,1.72-.89,3.72,0,2.29.28,3.18.89,3.72a2.17,2.17,0,0,0,1.47.43,2.14,2.14,0,0,0,1.48-.43c.61-.54.89-1.43.89-3.72C46.67,41,46.39,39.79,45.78,39.24Z"/><path class="cls-1" d="M59.64,42.05c-.78,0-1.25-.46-1.25-1s.33-.72.33-1.21A.68.68,0,0,0,58,39.1c-.86,0-1.56.6-2.06,2.69v8.46c0,.09.05.12.17.12h1.55c.06,0,.06.46,0,.46H51.85c-.06,0-.06-.46,0-.46h1.53c.14,0,.19,0,.19-.12v-11c0-.09,0-.12-.19-.12H51.85c-.06,0-.06-.46,0-.46h4c.09,0,.09,0,.09.09v1.89c.53-1.66,1.39-2.23,2.84-2.23a2,2,0,0,1,2.08,2.08C60.86,41.5,60.31,42.05,59.64,42.05Z"/><path class="cls-1" d="M71.27,51.08A2.28,2.28,0,0,1,69.1,49a3.33,3.33,0,0,1-3.17,2.11c-1.86,0-3.76-.74-3.76-3,0-3,2.54-3.52,3.62-3.63,1.53-.14,3.2-.26,3.2-.86V41.42c0-2.29-1.08-2.58-2.08-2.58-.81,0-1.29.26-1.29,1,0,.48.26.63.26,1s-.39,1-1.23,1a1.14,1.14,0,0,1-1.11-1.28c0-1,1.19-2.23,3.37-2.23,2.86,0,4.45,1.6,4.45,5.17v5.81c0,.68.28,1,.64,1a1,1,0,0,0,.92-.63c0-.06.28.2.25.26A1.91,1.91,0,0,1,71.27,51.08ZM69,44.31a8.34,8.34,0,0,1-2.67.57c-.95.2-1.81.57-1.81,3.2,0,1.72.75,2.43,1.92,2.43A2.78,2.78,0,0,0,69,47.71Z"/><path class="cls-1" d="M89.7,50.83a1.19,1.19,0,0,1,0-.46h1.5c.14,0,.2,0,.2-.12V41.76c0-2-1.25-2.92-2.2-2.92A3.1,3.1,0,0,0,86,42v8.23c0,.09,0,.12.16.12h1.54c.08,0,.08.46,0,.46H81.94c-.06,0-.06-.46,0-.46h1.53c.11,0,.16,0,.16-.12V41.76c0-2-1.25-2.92-2.19-2.92-1.7,0-2.62.92-3.18,2.72v8.69c0,.09.06.12.17.12H80c.08,0,.08.46,0,.46H74.17c-.08,0-.08-.46,0-.46H75.7c.14,0,.2,0,.2-.12v-11c0-.09-.06-.12-.2-.12H74.17c-.08,0-.08-.46,0-.46h4s.08,0,.08.09v1.89a3.18,3.18,0,0,1,3.18-2.23c2.53,0,3.92.91,4.45,2.34a3.39,3.39,0,0,1,3.31-2.34c2.84,0,4.59,1.14,4.59,4.17v7.69c0,.09.06.12.17.12h1.56s0,.46,0,.46Z"/><path class="cls-1" d="M20.7,28.94H.27c-.08,0-.08-.64,0-.64H3.62c.12,0,.2,0,.2-.16V1.45c0-.12-.08-.16-.2-.16H.27C.19,1.29.19.65.27.65H11.8c.08,0,.08.64,0,.64H8.45c-.16,0-.24,0-.24.16V28.14c0,.12.08.16.24.16h4.11c5.75,0,7.7-4,7.7-8.06,0-.08.56-.08.56,0v8.58A.11.11,0,0,1,20.7,28.94Z"/><path class="cls-1" d="M45,28.94H23.57c-.08,0-.08-.64,0-.64h3.31c.16,0,.24,0,.24-.16V1.45c0-.12-.08-.16-.24-.16H23.57c-.08,0-.08-.64,0-.64H43a.13.13,0,0,1,.12.12V8.19c0,.12-.6.12-.6,0,0-3.71-1.83-6.9-6.58-6.9H31.75c-.2,0-.28,0-.28.16V14.1H33c3,0,4.74-1.8,4.74-4.55,0-.08.52-.08.52,0v9.73c0,.12-.52.12-.52,0,0-2.71-1.71-4.55-4.74-4.55H31.47V28.14c0,.12.08.16.28.16H36.1c6.26,0,8.46-3.59,8.46-7.7,0-.08.56-.08.56,0v8.22A.11.11,0,0,1,45,28.94Z"/><path class="cls-1" d="M61.19,28.94c-.08,0-.08-.64,0-.64h3.43c.12,0,.2-.08.16-.12l-3-8.58H52.69l-2.43,7c-.48,1.44-.52,1.68-.32,1.68h3.31c.08,0,.08.64,0,.64H45.79a1.72,1.72,0,0,1,0-.64h3c.36,0,.44-.12.92-1.68L58.8.09c0-.12.56-.12.6,0L69.49,28.18s.12.12.28.12h3.31c.08,0,.08.64,0,.64ZM57.32,6.08,52.89,19h8.78Z"/><path class="cls-1" d="M85.89,17.73A14.58,14.58,0,0,1,82,17.25V28.14c0,.12.08.16.24.16h3.35c.08,0,.08.64,0,.64H74c-.08,0-.08-.64,0-.64h3.35c.12,0,.2,0,.2-.16V1.45c0-.12-.08-.16-.2-.16H74c-.08,0-.08-.64,0-.64H85.25c6.82,0,10.53,4,10.53,8.86S91.83,17.73,85.89,17.73ZM85.25,1.29h-3c-.16,0-.24,0-.24.16v15a8.9,8.9,0,0,0,3.91.64c3.51,0,5.58-1.84,5.58-7.58S88.8,1.29,85.25,1.29Z"/><rect class="cls-1" y="32.79" width="96.11" height="1"/></g></g></svg>